# xmcd
# Copyright (C) 1995-1998 Ti Kan
#
# Track frame offsets:
#       150
#       20660
#       37280
#
# Disc length: 764 seconds
#
# Revision: 0
# Processed by: cddbd v1.5.2PL0 Copyright (c) Steve Scherf et al.
# Submitted via: CD-Import v1.0
#
DISCID=2402fa03
DTITLE=Mad Genius - Looking Back
DYEAR=2009
DGENRE=
TTITLE0=Long Time Ago
TTITLE1=Lay Your Head Down
TTITLE2=In The Meantime
EXTD=
EXTT0=
EXTT1=
EXTT2=
PLAYORDER=
